<?xml version="1.0" encoding="UTF-8"?>
<svg width="700pt" height="700pt" version="1.1" viewBox="0 0 700 700" xmlns="http://www.w3.org/2000/svg">
 <g fill-rule="evenodd">
  <path d="m268.75 241.38c-12.965-32.523-19.594-67.449-19.594-102.44 0-49.195 12.855-96.859 37.332-138.94-102.81 37.551-173.18 136.91-173.18 247.63 0 65.086 23.656 127 66.789 175.34 13.129-20.078 35.586-32.199 59.488-32.199 30.289 0 57.332 19.453 67.168 47.785 17.691 4.5586 30.562 20.809 30.562 39.422 0 4.3047-0.75 9.082-2.2031 13.223 7.7617 6.8828 8.0742 10.211 12.746 18.387 9.5977 1.0508 19.32 1.5742 28.965 1.5742 81.77 0 158.29-37.746 208.11-101.83-19.32 4.2109-39.105 6.3398-59.051 6.3398-113.25-0.019531-214.98-69.289-257.14-174.29zm-122.44 56.965c-3.6523 0-6.6016-2.9531-6.6016-6.6016 0-3.6484 2.9531-6.6016 6.6016-6.6016h52.809c3.6484 0 6.6016 2.9531 6.6016 6.6016 0 3.6484-2.9531 6.6016-6.6016 6.6016zm92.418 39.602h-39.609c-3.6445 0-6.6016-2.9531-6.6016-6.6016s2.9609-6.6016 6.6016-6.6016l39.609-0.003907c3.6445 0 6.6016 2.9531 6.6016 6.6016 0 3.6484-2.9609 6.6055-6.6016 6.6055z"/>
  <path d="m279.48 232.32 169.82 0.003906c18.578 0 33.695-15.121 33.695-33.695 0-11.004-5.3984-21.332-14.438-27.652-2.6914-1.8672-3.5977-5.4414-2.1172-8.3711 1.9375-3.8672 2.918-8.0039 2.918-12.34 0-13.535-10.082-25.223-23.453-27.195-2.5625-0.37109-4.6758-2.2227-5.3906-4.7344-7.0117-24.754-29.914-42.055-55.688-42.055-22.926 0-43.711 13.566-52.965 34.562-1.625 3.7031-6.1719 5.0742-9.5898 2.918-5.3984-3.4336-11.633-5.2422-18.043-5.2422-18.578 0-33.695 15.109-33.695 33.688 0 4.7344 0.96484 9.3047 2.8672 13.605 2.0273 4.5664-1.6055 9.6914-6.5898 9.25-1.168-0.09375-2.1914-0.13281-3.1758-0.125 2.1641 22.93 7.6641 45.855 15.84 67.379z"/>
  <path d="m323.3 498.67c-2.6914-1.8828-3.5898-5.4531-2.1172-8.3828 1.9453-3.8516 2.9258-8.0039 2.9258-12.324 0-13.535-10.082-25.23-23.453-27.195-2.582-0.42578-4.6641-2.1797-5.3867-4.7344-6.3594-22.441-25.758-38.762-48.523-41.621-3.1172-0.37891-6.125-0.49609-9.2539-0.39844-21.352 0.78516-40.879 13.535-50.141 32.934-2.0195 4.1445-5.4531 7.5859-10.324 4.5-5.3984-3.4336-11.637-5.2422-18.043-5.2422-18.578 0-33.695 15.121-33.695 33.695 0 4.7227 0.96484 9.293 2.8672 13.602 0.94141 2.1328 0.6875 4.5938-0.66797 6.5-2.4492 3.4609-5.3438 2.6133-8.8047 2.6133-18.586 0-33.695 15.121-33.695 33.695 0 18.57 15.117 33.695 33.695 33.695l185.36-0.003906c18.578 0 33.691-15.121 33.691-33.695 0-10.836-5.4727-21.488-14.438-27.637z"/>
  <path d="m582 7.8711c-18.199 0-33.004 14.812-33.004 33.012 0 18.199 14.809 32.996 33.004 32.996 18.199 0 33.004-14.801 33.004-32.996 0-18.199-14.809-33.012-33.004-33.012z"/>
  <path d="m555.6 311.54c10.918 0 19.805-8.8789 19.805-19.797 0-10.922-8.8789-19.809-19.805-19.809-10.922 0-19.809 8.8789-19.809 19.809 0.007813 10.914 8.8867 19.797 19.809 19.797z"/>
 </g>
</svg>
